# xmcd
#
# Track frame offsets:
#	150
#	6754
#	22876
#	37649
#	52427
#	76237
#	93298
#	108749
#	123007
#	136573
#	152286
#	165812
#
# Disc length: 2433 seconds
#
# Revision: 0
# Processed by: cddbd v1.5.2PL0 Copyright (c) Steve Scherf et al.
# Submitted via: EasyCDDAExtractor 16.1.0.1
#
DISCID=75097f0c
DTITLE=Hapa - Tuahine
DYEAR=2013
DGENRE=Hawaiian
TTITLE0=Halemau Ma'u 
TTITLE1=Tapa 'O NoTe Here
TTITLE2=Hi'ilawe
TTITLE3=Water Song
TTITLE4=Manoa, In The Rain
TTITLE5=Pua Lili Lehua
TTITLE6=Along the Cliffs of Moher
TTITLE7=Wahine 'Ilikea
TTITLE8=Islands
TTITLE9=Kaulana Kawaihae
TTITLE10=Ka Wai Lehua A 'Ala Ka Honua
TTITLE11=Tuahine
EXTD=
EXTT0=
EXTT1=
EXTT2=
EXTT3=
EXTT4=
EXTT5=
EXTT6=
EXTT7=
EXTT8=
EXTT9=
EXTT10=
EXTT11=
PLAYORDER=
